<svg version="1.1" id="Layer_1" xmlns="http://www.w3.org/2000/svg" xmlns:xlink="http://www.w3.org/1999/xlink" x="0px" y="0px"
	 width="100%" viewBox="0 0 141 115" enable-background="new 0 0 141 115" xml:space="preserve">
<path fill="#FFFDFC" opacity="1.000000" stroke="none" 
	d="
M95.000000,116.000000 
	C63.333332,116.000000 32.166668,116.000000 1.000000,116.000000 
	C1.000000,77.666664 1.000000,39.333332 1.000000,1.000000 
	C48.000000,1.000000 95.000000,1.000000 142.000000,1.000000 
	C142.000000,39.333332 142.000000,77.666664 142.000000,116.000000 
	C126.500000,116.000000 111.000000,116.000000 95.000000,116.000000 
M29.664539,38.087315 
	C30.141394,38.466202 30.618250,38.845085 30.882828,39.880054 
	C29.938643,41.168133 28.797113,42.355736 28.081903,43.760403 
	C22.967817,53.804424 24.979185,63.179985 30.783762,72.758301 
	C31.199490,74.257065 31.287397,75.962090 32.080883,77.223160 
	C41.622917,92.388214 60.123970,99.681374 77.662445,95.311531 
	C95.415253,90.888283 107.979591,76.053085 109.660263,57.530479 
	C111.205093,40.505005 100.718208,22.804726 85.035194,15.967088 
	C67.902145,8.497250 48.595707,12.283073 36.588932,25.795593 
	C33.932823,28.784800 32.177650,32.574551 29.510366,36.318569 
	C29.328306,36.869907 29.146244,37.421249 28.697969,38.102314 
	C28.807203,38.079262 28.916439,38.056206 29.664539,38.087315 
z"/>
<path fill="#FF9B06" opacity="1.000000" stroke="none" 
	d="
M30.007629,35.995682 
	C32.177650,32.574551 33.932823,28.784800 36.588932,25.795593 
	C48.595707,12.283073 67.902145,8.497250 85.035194,15.967088 
	C100.718208,22.804726 111.205093,40.505005 109.660263,57.530479 
	C107.979591,76.053085 95.415253,90.888283 77.662445,95.311531 
	C60.123970,99.681374 41.622917,92.388214 32.080883,77.223160 
	C31.287397,75.962090 31.199490,74.257065 31.166634,72.478928 
	C32.082405,73.086609 32.615303,73.973671 33.174088,75.257225 
	C33.815899,75.765656 34.431824,75.877602 35.020073,76.001190 
	C34.992401,76.012833 34.965252,75.959419 34.676727,76.244614 
	C34.788101,77.056244 35.131752,77.639244 35.596100,78.100838 
	C48.094044,90.524887 69.615921,90.037430 81.860878,77.065453 
	C94.461121,63.717087 93.862404,42.939648 80.517166,30.435179 
	C67.266197,18.019039 45.963314,18.851780 33.887413,32.229866 
	C32.682411,33.564804 31.305014,34.744133 30.007629,35.995682 
z"/>
<path fill="#FDFAF8" opacity="1.000000" stroke="none" 
	d="
M29.758999,36.157127 
	C31.305014,34.744133 32.682411,33.564804 33.887413,32.229866 
	C45.963314,18.851780 67.266197,18.019039 80.517166,30.435179 
	C93.862404,42.939648 94.461121,63.717087 81.860878,77.065453 
	C69.615921,90.037430 48.094044,90.524887 35.596100,78.100838 
	C35.131752,77.639244 34.788101,77.056244 35.072823,76.222542 
	C38.609512,76.720146 41.421490,77.733376 44.321072,78.291336 
	C53.485809,80.054893 61.219635,77.180428 66.985504,70.008301 
	C73.177193,62.306484 74.156723,53.486557 69.675491,44.726200 
	C65.488457,36.540958 58.517666,32.031570 48.999100,31.766689 
	C41.830994,31.567215 36.189228,34.643349 31.095104,39.223972 
	C30.618250,38.845085 30.141394,38.466202 29.331142,38.043678 
	C28.997744,38.000042 28.964186,37.972588 28.964184,37.972588 
	C29.146244,37.421249 29.328306,36.869907 29.758999,36.157127 
z"/>
<path fill="#3ECE19" opacity="1.000000" stroke="none" 
	d="
M30.988966,39.552013 
	C36.189228,34.643349 41.830994,31.567215 48.999100,31.766689 
	C58.517666,32.031570 65.488457,36.540958 69.675491,44.726200 
	C74.156723,53.486557 73.177193,62.306484 66.985504,70.008301 
	C61.219635,77.180428 53.485809,80.054893 44.321072,78.291336 
	C41.421490,77.733376 38.609512,76.720146 35.361347,75.937347 
	C34.965252,75.959419 34.992401,76.012833 34.984158,75.678253 
	C34.366676,75.182701 33.757439,75.021721 33.148201,74.860733 
	C32.615303,73.973671 32.082405,73.086609 31.237448,72.169922 
	C24.979185,63.179985 22.967817,53.804424 28.081903,43.760403 
	C28.797113,42.355736 29.938643,41.168133 30.988966,39.552013 
M27.752684,61.523510 
	C32.177948,68.750877 38.470947,71.362518 45.349556,68.826363 
	C51.443836,66.579369 55.393932,60.056881 54.440422,53.815289 
	C53.149261,45.363426 45.631474,40.072807 37.449554,41.858021 
	C28.962971,43.709705 24.896236,51.396908 27.752684,61.523510 
z"/>
<path fill="#FDFAF8" opacity="1.000000" stroke="none" 
	d="
M29.011709,38.016594 
	C28.916439,38.056206 28.807203,38.079262 28.831078,38.037453 
	C28.964186,37.972588 28.997744,38.000042 29.011709,38.016594 
z"/>
<path fill="#FDFAF8" opacity="1.000000" stroke="none" 
	d="
M33.174088,75.257225 
	C33.757439,75.021721 34.366676,75.182701 35.011833,75.666611 
	C34.431824,75.877602 33.815899,75.765656 33.174088,75.257225 
z"/>
<path fill="#010400" opacity="1.000000" stroke="none" 
	d="
M27.580910,61.180283 
	C24.896236,51.396908 28.962971,43.709705 37.449554,41.858021 
	C45.631474,40.072807 53.149261,45.363426 54.440422,53.815289 
	C55.393932,60.056881 51.443836,66.579369 45.349556,68.826363 
	C38.470947,71.362518 32.177948,68.750877 27.580910,61.180283 
z"/>
</svg>